<?xml version="1.0" encoding="utf-8" ?><svg xmlns="http://www.w3.org/2000/svg" xmlns:xlink="http://www.w3.org/1999/xlink" width="256" height="256" viewBox="232 231 560 560"><path fill="#1C1369" d="M623.819 276.018L623.079 277.784L623.628 278.442C626.747 278.483 628.411 276.3 631.264 275.937C628.541 280.793 625.385 285.085 622.748 289.719C616.215 301.202 609.098 312.666 602.648 324.135C620.25 330.244 637.933 336.119 655.692 341.755C664.458 344.551 680.008 348.995 687.942 352.155C687.753 377.857 687.765 403.559 687.977 429.261C688.318 456.12 689.48 486.315 685.984 512.792C672.858 612.192 598.646 683.374 512.091 725.436C503.5 722.552 491.286 713.691 482.922 709.526C478.539 707.343 473.878 703.443 469.237 701.11C461.08 714.206 454.295 727.225 446.55 740.51C444.401 744.197 442.69 748.35 440.217 751.757L439.703 751.844C439.839 750.802 439.821 750.72 440.118 749.716C438.675 748.283 438.459 747.882 437.349 746.137C437.669 744.763 443.55 734.079 444.531 732.597L443.707 731.403C444.915 728.386 450.224 719.609 451.899 716.809C456.089 709.842 460.166 702.808 464.129 695.709C481.942 664.124 500.182 632.782 518.843 601.69C526.303 589.155 533.374 576.537 540.991 564.002C546.617 554.76 552.326 545.568 558.116 536.427C560.838 532.1 566.308 523.777 568.26 519.413C574.614 510.429 581.055 498.34 587.236 488.939C597.736 472.971 607.944 456.864 618.029 440.631L619.045 439.908C620.493 437.521 622.153 435.558 623.887 433.376L614.744 436.064C580.521 448.138 545.897 459.56 511.832 472.047C507.641 473.452 503.437 474.819 499.221 476.149L498.884 475.717C499.844 473.241 502.59 469.484 504.17 467.147C511.329 456.465 518.263 445.634 524.967 434.661C526.895 432.566 532.315 422.99 534.128 420.047L539.377 411.442C544.352 403.143 549.384 394.878 554.474 386.649C555.964 384.345 557.078 382.683 558.274 380.18C559.659 378.01 561.003 375.733 562.34 373.527C562.874 372.997 564.39 370.303 564.872 369.491C565.251 368.996 565.889 367.76 566.225 367.16C567.938 364.484 569.57 361.757 571.119 358.983C576.29 351.934 580.904 342.978 585.716 335.571C598.403 316.042 610.24 294.986 623.256 275.766L623.819 276.018Z"/><path fill="#1394F7" d="M619.045 439.908C622.106 440.198 626.232 437.988 629.363 436.826C625.23 445.014 617.818 455.605 612.819 463.685L582.317 513.271C555.54 556.313 529.376 599.734 503.831 643.518L479.304 684.364C476.27 689.45 471.921 696.079 469.237 701.11C461.08 714.206 454.295 727.225 446.55 740.51C444.401 744.197 442.69 748.35 440.217 751.757L439.703 751.844C439.839 750.802 439.821 750.72 440.118 749.716C438.675 748.283 438.459 747.882 437.349 746.137C437.669 744.763 443.55 734.079 444.531 732.597L443.707 731.403C444.915 728.386 450.224 719.609 451.899 716.809C456.089 709.842 460.166 702.808 464.129 695.709C481.942 664.124 500.182 632.782 518.843 601.69C526.303 589.155 533.374 576.537 540.991 564.002C546.617 554.76 552.326 545.568 558.116 536.427C560.838 532.1 566.308 523.777 568.26 519.413C574.614 510.429 581.055 498.34 587.236 488.939C597.736 472.971 607.944 456.864 618.029 440.631L619.045 439.908Z"/><path fill="#FFFEFE" d="M444.531 732.597C443.311 739.07 442.336 743.364 440.118 749.716C438.675 748.283 438.459 747.882 437.349 746.137C437.669 744.763 443.55 734.079 444.531 732.597Z"/><path fill="#1394F7" d="M623.819 276.018L623.079 277.784L623.628 278.442C626.747 278.483 628.411 276.3 631.264 275.937C628.541 280.793 625.385 285.085 622.748 289.719C616.215 301.202 609.098 312.666 602.648 324.135C597.925 330.474 591.311 341.837 586.954 348.905C577.143 364.78 567.425 380.713 557.802 396.702C549.372 410.616 541.009 424.57 532.598 438.493C525.872 449.626 518.091 460.646 511.832 472.047C507.641 473.452 503.437 474.819 499.221 476.149L498.884 475.717C499.844 473.241 502.59 469.484 504.17 467.147C511.329 456.465 518.263 445.634 524.967 434.661C526.895 432.566 532.315 422.99 534.128 420.047L539.377 411.442C544.352 403.143 549.384 394.878 554.474 386.649C555.964 384.345 557.078 382.683 558.274 380.18C559.659 378.01 561.003 375.733 562.34 373.527C562.874 372.997 564.39 370.303 564.872 369.491C565.251 368.996 565.889 367.76 566.225 367.16C567.938 364.484 569.57 361.757 571.119 358.983C576.29 351.934 580.904 342.978 585.716 335.571C598.403 316.042 610.24 294.986 623.256 275.766L623.819 276.018Z"/><path fill="#1C1369" d="M336.521 352.979C345.148 349.427 359.969 345.011 369.397 341.866L445.381 317.021L491.143 301.864C495.855 300.299 510.314 294.705 514.001 295.589C523.558 297.88 533.839 302.343 543.477 305.032C546.373 303.918 550.488 302.026 553.497 302.419C552.596 304.258 535.34 309.985 532.378 311.068C528.277 312.248 522.798 314.408 519.114 315.335L512.412 317.653C506.073 319.523 496.408 322.709 490.33 325.213C486.523 326.452 482.08 328.03 478.289 329.117C473.107 350.889 465.478 374.544 459.314 396.296L447.198 438.79C445.812 443.536 444.072 450.598 442.558 454.977C441.349 459.155 440.037 464.178 438.642 468.232L438.564 469.079C430.077 494.098 423.832 520.185 415.316 545.241C413.875 549.478 412.616 553.671 411.717 558.06C413.166 557.411 415.149 556.446 416.602 555.927C418.541 554.907 420.891 554.012 422.925 553.107C435.446 547.53 448.125 542.323 460.569 536.575C465.307 534.939 472.288 531.781 477.175 529.764C487.956 525.347 498.712 520.87 509.443 516.333C508.513 519.39 507.359 522.828 506.78 525.918C505.601 528.67 503.745 535.017 502.771 538.054L493.51 567.94L466.567 651.861C462.644 664.076 458.181 680.074 453.943 691.542C388.604 643.595 341.987 579.386 336.639 496.639C335.937 477.598 335.923 458.275 336.149 439.204C336.488 410.582 335.705 381.544 336.521 352.979Z"/><path fill="#1394F7" d="M460.569 536.575C465.307 534.939 472.288 531.781 477.175 529.764C487.956 525.347 498.712 520.87 509.443 516.333C508.513 519.39 507.359 522.828 506.78 525.918L412.969 566.232C414.134 562.26 415.035 559.77 416.602 555.927C418.541 554.907 420.891 554.012 422.925 553.107C435.446 547.53 448.125 542.323 460.569 536.575Z"/><defs><linearGradient id="gradient_0" gradientUnits="userSpaceOnUse" x1="552.86438" y1="578.42419" x2="429.06476" y2="483.27646"><stop offset="0" stop-color="#FFFEFF" stop-opacity="0"/><stop offset="1" stop-color="white" stop-opacity="0.11372549"/></linearGradient></defs><path fill="url(#gradient_0)" d="M511.832 472.047C545.897 459.56 580.521 448.138 614.744 436.064C615.229 438.647 614.855 438.698 617.585 439.974L618.029 440.631C607.944 456.864 597.736 472.971 587.236 488.939C581.055 498.34 574.614 510.429 568.26 519.413C567.839 518.096 567.788 517.823 567.208 516.569C565.636 516.368 566.313 516.174 565.095 517.116L565.113 518.46C565.886 519.133 565.975 519.166 566.481 520.079C564.009 526.22 559.044 532.171 555.886 538.134L554.343 537.409L553.505 537.79L553.347 538.622L554.519 539.91C554.375 541.384 553.424 542.134 552.405 543.294L551.504 543.647C551.333 542.763 551.198 542.116 550.98 541.233C549.855 541.273 549.718 541.817 548.628 542.852L548.338 544.647C548.992 545.359 549.08 545.452 549.763 546.056C549.72 547.987 549.244 548.644 548.421 550.373L547.705 550.89C547.402 549.577 547.499 549.332 547.582 547.965C546.258 546.783 547.021 547.127 545.173 546.993C542.67 549.401 544.653 551.425 546.242 553.362C545.528 554.527 545.07 555.308 544.439 556.545L544.027 556.766C543.152 555.818 542.421 554.753 541.338 554.304C539.801 556.421 540.752 557.732 541.961 559.76L541.848 560.934L541.307 559.85C539.408 559.502 539.004 559.742 537.179 560.26C535.527 561.754 536.421 563.792 537.512 565.433L537.061 566.008C535.536 566.066 535.05 566.03 533.582 565.891C529.889 567.938 533.624 570.427 528.113 572.024C526.389 574.247 527.095 574.907 527.947 577.54C526.56 579.104 524.9 577.963 523.603 580.062C521.575 583.343 519.267 585.096 519.637 589.178C519.761 590.542 516.185 591.339 515.009 593.769C514.843 595.716 515.001 596.069 515.429 598.023L515.023 599.224C512.843 599.706 512.409 599.437 511.293 601.235C511.345 602.996 511.79 603.697 512.487 605.296L512.332 606.369C511.043 606.299 511.079 606.35 509.907 605.848C506.842 608.056 508.24 611.085 504.763 613.723L504.719 614.572C504.487 618.374 503.7 618.539 500.339 619.774C498.473 622.115 499.199 622.418 500.465 625.148L500.319 626.302C498.913 626.939 498.632 626.744 497.093 626.541C492.823 628.482 492.253 636.677 490.316 639.676C489.364 640.044 488.405 640.397 487.441 640.733C487.023 644.063 488.743 643.735 487.819 646.527C486.501 647.406 486.176 647.368 484.646 647.72C483.645 649.666 484.083 652.129 483.286 654.11C482.76 655.417 476.81 660.01 476.637 661.008C475.97 664.846 477.988 666.818 472.583 667.334C470.74 669.741 475.365 673.949 469.357 674.65C467.888 676.155 467.852 675.755 468.176 677.939C466.012 682.398 469.483 683.489 468.264 686.773L467.677 686.86C467.62 686.017 467.498 685.18 467.393 684.342L466.13 683.489C463.389 684.102 463.416 687.011 463.778 689.293L464.434 689.595L466.799 688.533C466.606 689.584 463.354 695.464 462.526 696.336L461.941 696.47L461.99 695.512L461.364 694.58C459.407 694.291 460.052 694.769 459.101 693.494C459.023 688.813 462.35 691.01 459.528 685.884C459.874 683.089 461.301 683.088 463.827 681.977C466.544 677.823 461.212 672.376 468.212 667.747C468.942 667.265 467.22 657.745 470.585 657.111C472.619 656.069 472.537 653.256 472.405 651.519C472.22 649.091 473.417 646.059 474.353 643.848C476.626 638.477 474.766 635.038 479.893 631.862C481.27 629.363 480.046 622.582 480.316 619.668C480.515 617.523 482.022 619.322 483.407 616.994C484.539 615.092 483.745 605.282 484.642 604.916L486.275 605.979L487.013 605.805C488.538 601.884 487.994 596.191 488.884 594.755C490.206 594.203 491.288 594.119 491.47 592.94C492.114 588.761 491.615 584.287 495.152 581.445C495.497 581.171 495.846 580.901 496.198 580.636C498.376 575.013 492.749 573.33 500.045 568.783C503.13 561.488 496.366 562.663 497.612 556.981C499.095 550.215 507.521 531.97 506.78 525.918C507.359 522.828 508.513 519.39 509.443 516.333C498.712 520.87 487.956 525.347 477.175 529.764C472.288 531.781 465.307 534.939 460.569 536.575L460.528 536.078C458.287 536.162 430.706 548.992 425.917 550.76C423.893 548.408 420.139 546.762 417.22 545.873L416.157 547.679L415.735 547.622C417.013 535.636 439.779 475.531 438.564 469.079L438.642 468.232L441.697 473.572L441.693 472.865C441.695 471.102 441.481 470.201 442.473 468.799C447.831 467.287 453.126 480.372 462.865 479.785C468.177 479.464 479.863 483.441 485.89 481.674C488.725 481.186 491.494 479.439 494.502 479.277C495.702 480.291 495.916 480.915 496.65 482.28L497.527 482.524C500.114 480.631 498.692 478.703 498.797 476.324L499.221 476.149C503.437 474.819 507.641 473.452 511.832 472.047Z"/><defs><linearGradient id="gradient_1" gradientUnits="userSpaceOnUse" x1="534.14972" y1="442.56647" x2="455.38809" y2="352.21036"><stop offset="0" stop-color="#FFFFFE" stop-opacity="0.36470589"/><stop offset="1" stop-color="white" stop-opacity="0.85490197"/></linearGradient></defs><path fill="url(#gradient_1)" d="M523.852 316.418C524.039 316.192 524.66 315.405 524.855 315.249L526.272 315.817C526.947 314.95 526.657 315.393 527.157 314.498C528.845 314.903 528.09 314.531 529.441 315.773C528.134 316.595 528.611 316.35 527.064 316.729C529.289 317.968 530.745 318.984 532.557 320.738L534.223 320.212L536.313 321.633L536.831 321.26L536.881 322.27L535.629 323.619C535.789 327.341 542.719 326.712 544.942 327.836C546.156 328.451 548.365 333.212 549.613 334.244C552.871 337.114 557.797 337.645 560.412 341.455C561.656 343.268 560.886 348.085 562.466 349.538C563.973 350.924 565.898 350.489 566.772 352.311C565.933 357.162 560.084 356.652 562.832 364.706L563.704 365.505L563.593 366.993C564.599 367.107 565.249 367.259 566.225 367.16C565.889 367.76 565.251 368.996 564.872 369.491C561.847 368.847 560.71 369.258 557.704 368.886C555.169 371.551 552.815 378.897 551.433 382.628C552.687 384.68 553.627 385.277 554.474 386.649C549.384 394.878 544.352 403.143 539.377 411.442C537.728 409.624 537.648 409.539 535.517 408.386C531.047 408.334 530.122 412.229 529.453 415.884C531.09 416.238 533.236 418.69 534.128 420.047C532.315 422.99 526.895 432.566 524.967 434.661C520.584 432.383 522.687 431.826 520.877 430.996C515.462 438.242 509.929 449.862 504.245 458.387C504.095 460.768 503.599 465.001 504.17 467.147C502.59 469.484 499.844 473.241 498.884 475.717L499.221 476.149L498.797 476.324C497.716 477.133 486.485 480.675 484.665 480.507C475.829 479.693 462.824 478.994 454.52 475.779C452.434 474.972 448.917 469.674 446.862 468.573C445.024 467.588 443.661 469.042 441.786 467.578C441.253 465.774 441.115 465.537 441.503 463.72L442.34 459.973C442.46 461.578 442.239 461.024 443.02 462.338L444.18 462.377L444.569 461.463C444.141 457.6 443.827 458.245 442.558 454.977C444.072 450.598 445.812 443.536 447.198 438.79L459.314 396.296C465.478 374.544 473.107 350.889 478.289 329.117C482.08 328.03 486.523 326.452 490.33 325.213C495.486 326.173 500.355 324.313 504.622 321.513C506.261 320.438 503.952 321.48 506.037 320.643C506.147 321.889 506.078 321.652 505.816 322.934C502.745 326.421 496.739 326.958 492.291 327.604L492.156 327.981C499.83 330.318 498.645 329.908 505.559 325.492C511.467 326.365 514.193 325.124 519.281 322.276C518.203 322.879 522.002 323.034 522.343 322.996C523.533 322.125 524.658 321.485 525.412 320.245C523.94 318.527 522.992 319.378 520.465 317.918C521.511 316.855 520.944 317.318 522.838 317.006L523.852 316.418Z"/><defs><linearGradient id="gradient_2" gradientUnits="userSpaceOnUse" x1="564.10327" y1="331.69089" x2="554.61115" y2="340.80331"><stop offset="0" stop-color="white" stop-opacity="0.12941177"/><stop offset="1" stop-color="#FFFFFE" stop-opacity="0.32941177"/></linearGradient></defs><path fill="url(#gradient_2)" d="M519.114 315.335C522.798 314.408 528.277 312.248 532.378 311.068C534.976 311.63 543.473 313.098 545.158 314.998C545.756 315.672 545.935 317.016 546.115 317.938C551.665 324.274 557.691 324.813 564.86 326.956L565.234 327.487C569.728 333.994 565.991 338.006 575.234 338.679L574.925 345.084C572.718 348.169 571.379 352.623 570.761 353.316C568.308 356.669 565.969 360.104 563.75 363.616C563.334 364.268 563.483 364.039 562.832 364.706C560.084 356.652 565.933 357.162 566.772 352.311C565.898 350.489 563.973 350.924 562.466 349.538C560.886 348.085 561.656 343.268 560.412 341.455C557.797 337.645 552.871 337.114 549.613 334.244C548.365 333.212 546.156 328.451 544.942 327.836C542.719 326.712 535.789 327.341 535.629 323.619L536.881 322.27L536.831 321.26L536.313 321.633L534.223 320.212L532.557 320.738C530.745 318.984 529.289 317.968 527.064 316.729C528.611 316.35 528.134 316.595 529.441 315.773C528.09 314.531 528.845 314.903 527.157 314.498C526.657 315.393 526.947 314.95 526.272 315.817L524.855 315.249C524.66 315.405 524.039 316.192 523.852 316.418C522.591 316.319 520.443 315.682 519.114 315.335Z"/><path fill="#FFFEFE" fill-opacity="0.11372549" d="M504.245 458.387C509.929 449.862 515.462 438.242 520.877 430.996C522.687 431.826 520.584 432.383 524.967 434.661C518.263 445.634 511.329 456.465 504.17 467.147C503.599 465.001 504.095 460.768 504.245 458.387Z"/><path fill="#FFFEFE" fill-opacity="0.55686277" d="M512.412 317.653L512.669 318.391C515.186 319.624 516.957 318.707 519.74 317.82C520.52 317.041 520.382 317.167 521.265 316.557L522.838 317.006C520.944 317.318 521.511 316.855 520.465 317.918C522.992 319.378 523.94 318.527 525.412 320.245C524.658 321.485 523.533 322.125 522.343 322.996C522.002 323.034 518.203 322.879 519.281 322.276C514.193 325.124 511.467 326.365 505.559 325.492C498.645 329.908 499.83 330.318 492.156 327.981L492.291 327.604C496.739 326.958 502.745 326.421 505.816 322.934C506.078 321.652 506.147 321.889 506.037 320.643C503.952 321.48 506.261 320.438 504.622 321.513C500.355 324.313 495.486 326.173 490.33 325.213C496.408 322.709 506.073 319.523 512.412 317.653Z"/><path fill="#FFFEFE" fill-opacity="0.3019608" d="M442.558 454.977C443.827 458.245 444.141 457.6 444.569 461.463L444.18 462.377L443.02 462.338C442.239 461.024 442.46 461.578 442.34 459.973L441.503 463.72C441.115 465.537 441.253 465.774 441.786 467.578C443.661 469.042 445.024 467.588 446.862 468.573C448.917 469.674 452.434 474.972 454.52 475.779C462.824 478.994 475.829 479.693 484.665 480.507C486.485 480.675 497.716 477.133 498.797 476.324C498.692 478.703 500.114 480.631 497.527 482.524L496.65 482.28C495.916 480.915 495.702 480.291 494.502 479.277C491.494 479.439 488.725 481.186 485.89 481.674C479.863 483.441 468.177 479.464 462.865 479.785C453.126 480.372 447.831 467.287 442.473 468.799C441.481 470.201 441.695 471.102 441.693 472.865L441.697 473.572L438.642 468.232C440.037 464.178 441.349 459.155 442.558 454.977Z"/><path fill="#FFFEFE" fill-opacity="0.46666667" d="M554.474 386.649C553.627 385.277 552.687 384.68 551.433 382.628C552.815 378.897 555.169 371.551 557.704 368.886C560.71 369.258 561.847 368.847 564.872 369.491C564.39 370.303 562.874 372.997 562.34 373.527C560.475 373.055 560.074 372.499 558.491 373.613C555.335 375.834 555.974 377.997 558.274 380.18C557.078 382.683 555.964 384.345 554.474 386.649Z"/><path fill="#1394F7" fill-opacity="0.96078432" d="M442.905 721.727L443.773 722.776C442.619 725.834 439.767 732.688 440.521 735.651L441.264 735.562C442.526 733.933 442.788 733.286 443.707 731.403L444.531 732.597C443.55 734.079 437.669 744.763 437.349 746.137C435.342 750.063 433.548 753.015 431.211 756.774C433.217 747.838 439.661 731.462 442.905 721.727Z"/><path fill="#FFFEFE" fill-opacity="0.40392157" d="M534.128 420.047C533.236 418.69 531.09 416.238 529.453 415.884C530.122 412.229 531.047 408.334 535.517 408.386C537.648 409.539 537.728 409.624 539.377 411.442L534.128 420.047Z"/><path fill="#FFFEFE" fill-opacity="0.17647059" d="M562.832 364.706C563.483 364.039 563.334 364.268 563.75 363.616C565.969 360.104 568.308 356.669 570.761 353.316C570.731 355.055 570.356 357.771 571.119 358.983C569.57 361.757 567.938 364.484 566.225 367.16C565.249 367.259 564.599 367.107 563.593 366.993L563.704 365.505L562.832 364.706Z"/><path fill="#A7C4E1" fill-opacity="0.94509804" d="M613.418 275.526C619.073 271.066 624.049 268.728 630.429 265.417C628.584 269.644 626.527 272.308 623.819 276.018L623.256 275.766C624.371 273.746 624.663 274.038 624.36 272.277C621.493 270.542 616.526 274.481 613.418 275.526Z"/><path fill="#1394F7" fill-opacity="0.86274511" d="M452.948 694.32C450.451 703.776 446.531 713.214 443.773 722.776L442.905 721.727C445.805 713.826 449.285 701.091 452.948 694.32Z"/><path fill="#FFFEFE" fill-opacity="0.15294118" d="M558.274 380.18C555.974 377.997 555.335 375.834 558.491 373.613C560.074 372.499 560.475 373.055 562.34 373.527C561.003 375.733 559.659 378.01 558.274 380.18Z"/><path fill="#FFFEFE" fill-opacity="0.38039216" d="M512.412 317.653L519.114 315.335C520.443 315.682 522.591 316.319 523.852 316.418L522.838 317.006L521.265 316.557C520.382 317.167 520.52 317.041 519.74 317.82C516.957 318.707 515.186 319.624 512.669 318.391L512.412 317.653Z"/><path fill="#010000" fill-opacity="0.015686275" d="M454.251 702.369C454.374 704.127 454.97 707.516 454.21 708.661C452.394 707.306 453.248 704.065 454.251 702.369Z"/></svg>