<?xml version="1.0" encoding="utf-8" ?><svg xmlns="http://www.w3.org/2000/svg" xmlns:xlink="http://www.w3.org/1999/xlink" width="793" height="246" viewBox="226 297 793 246"><path fill="#191564" d="M315.446 404.771C334.065 377.322 349.628 346.507 368.456 319.081C369.376 317.742 372.219 316.291 373.737 315.509C371.252 319.184 362.402 333.744 361.368 337.225L399.668 349.799L399.758 391.102C399.77 400.606 400.155 410.442 399.118 419.872C394.07 465.784 361.142 496.665 321.783 516.312C315.287 512.937 308.87 509.414 302.534 505.746C298.686 511.649 294.037 520.657 290.321 527.087C292.884 514.645 301.958 500.396 308.661 488.941C323.782 463.1 339.239 436.833 354.94 411.301C357.854 406.563 367.051 390.747 370.188 388.283L370.397 386.197C368.772 385.713 326.913 400.97 321.668 402.737L315.446 404.771Z"/><path fill="#1498EA" d="M370.188 388.283C371.487 388.361 371.596 388.291 372.814 388.849C371.968 391.077 367.251 398.324 365.736 400.78L352.533 422.529L302.534 505.746C298.686 511.649 294.037 520.657 290.321 527.087C292.884 514.645 301.958 500.396 308.661 488.941C323.782 463.1 339.239 436.833 354.94 411.301C357.854 406.563 367.051 390.747 370.188 388.283Z"/><path fill="#1498EA" d="M315.446 404.771C334.065 377.322 349.628 346.507 368.456 319.081C369.376 317.742 372.219 316.291 373.737 315.509C371.252 319.184 362.402 333.744 361.368 337.225C352.539 349.779 343.851 366.633 335.328 379.949C332.899 383.743 323.099 399.419 321.668 402.737L315.446 404.771Z"/><path fill="#191564" d="M472.235 360.94C500.342 356.449 526.745 375.665 531.122 403.796C535.498 431.928 516.181 458.26 488.038 462.523C460.056 466.763 433.914 447.575 429.563 419.604C425.211 391.632 444.288 365.406 472.235 360.94Z"/><path fill="white" d="M474.462 382.247C490.721 378.986 506.557 389.487 509.883 405.738C513.21 421.988 502.774 437.87 486.541 441.262C470.216 444.673 454.228 434.163 450.883 417.82C447.538 401.477 458.109 385.528 474.462 382.247Z"/><path fill="#191564" d="M321.326 323.996C326.005 325.562 330.836 327.107 335.445 328.836C329.842 331.714 312.526 337.234 305.983 339.383C302.93 350.77 276.381 439.82 276.508 441.411L276.914 441.981C281.037 439.499 314.723 424.979 319.33 423.75L319.818 424.532L319.171 427.195L295.539 501.705C269.281 483.508 250.25 458.727 244.391 426.768C242.143 414.502 242.556 403.628 242.55 391.206L242.555 350.304C268.834 341.546 295.205 333.264 321.326 323.996Z"/><path fill="#1498EA" d="M276.914 441.981C281.037 439.499 314.723 424.979 319.33 423.75L319.818 424.532L319.171 427.195C315.327 428.906 278.065 445.342 276.969 445.191C277.139 443.694 277.51 443.02 276.914 441.981Z"/><path fill="#191564" d="M727.44 362.295C740.659 360.595 754.916 364.609 766.683 370.318L759.918 388.05C749.988 383.114 728.983 376.074 718.816 384.697C717.511 385.804 716.181 389.549 716.575 391.151C719.431 402.749 739.762 402.162 749.006 406.616C754.985 408.661 759.384 411.037 764.076 415.37C774.017 424.552 771.249 442.643 762.224 451.544C752.88 460.76 737.996 461.647 725.287 461.413C711.616 460.125 702.444 456.768 690.984 449.71C693.471 443.923 695.806 437.842 698.143 431.975C709.867 439.916 721.239 444.453 735.658 443.573C741.032 443.245 748.649 439.186 747.281 433.321C744.638 421.991 724.997 421.624 716.039 417.891C710.852 415.73 706.67 414.716 702.237 411.12C690.853 403.107 691.546 384.765 699.657 374.653C706.339 366.322 716.981 363.39 727.44 362.295Z"/><path fill="#191564" d="M959.167 384.779C962.539 384.442 965.934 384.392 969.314 384.631C994.034 386.604 1003.96 406.783 1001.99 429.47L946.785 429.46C953.055 444.167 964.536 446.895 979.147 440.798C981.415 439.852 983.751 438.116 986.052 437.532L987.955 438.926L996.976 448.001C995.432 449.519 993.71 451.218 992.046 452.603C978.827 463.615 955.736 463.605 941.661 454.168C933.489 448.662 927.892 440.084 926.142 430.385C921.697 406.569 935.805 388.728 959.167 384.779Z"/><path fill="white" d="M963.815 401.315C975.054 401.748 979.267 406.262 981.833 416.852L965.239 416.829L947.072 416.879C948.6 406.921 954.092 402.469 963.815 401.315Z"/><path fill="#191564" d="M545.962 385.737L567.796 385.717C567.752 400.143 567.173 415.735 568.204 430.151C569.503 448.327 596.264 445.026 597.9 429.527C599.342 415.873 598.548 399.81 598.497 385.75L620.29 385.782L620.289 412.723L620.362 460.057L599.809 460.111L599.518 450.407C592.865 457.29 585.641 461.575 575.876 461.407C540.725 460.801 546.084 426.926 545.922 402.237C545.885 396.489 545.947 391.179 545.962 385.737Z"/><path fill="#191564" d="M782.079 385.724L803.796 385.705C803.726 400.37 803.234 415.418 804.142 430C804.533 436.291 809.94 442.597 816.619 442.416C835.312 441.909 834.382 425.581 834.072 411.53C833.887 403.181 834.007 394.138 833.983 385.734L855.665 385.742L855.667 414.171L855.799 460.073L835.013 460.102L834.94 450.564C834.442 451.093 833.938 451.616 833.427 452.133C817.577 468.164 786.906 462.716 783.179 439.818C780.613 424.05 781.96 402.031 782.079 385.724Z"/><path fill="#191564" d="M642.029 367.512L663.655 367.42L663.676 386.842C670.021 386.851 676.367 386.779 682.71 386.625C682.943 391.791 682.846 397.769 682.881 403.001L663.55 402.927C663.56 410.66 663.322 418.373 663.32 426.128C663.318 431.757 662.415 440.674 669.053 443.119C673.119 444.617 677.504 442.124 680.987 440.215C682.488 444.145 683.965 448.683 685.372 452.695C687.467 459.989 672.186 460.95 667.669 461.121C635.209 462.355 642.032 427.274 641.858 403.458L630.698 403.464L630.703 386.648L641.757 386.745L642.029 367.512Z"/><path fill="#191564" d="M915.331 384.786C917.167 384.587 918.3 384.222 919.813 385.165C921.782 388.649 920.783 398.882 920.77 403.714C896.255 404.066 894.888 413.979 895.758 435.55C896.073 443.374 895.891 452.2 895.919 460.11C892.045 460.145 876.652 460.942 874.389 459.196L874.188 457.295L874.014 410.255C873.987 402.787 873.663 392.813 874.181 385.675L895.045 385.645L895.246 396.158C901.655 388.315 905.342 386.384 915.331 384.786Z"/></svg>